<?xml version="1.0" standalone="no"?>
<!DOCTYPE svg PUBLIC "-//W3C//DTD SVG 20010904//EN"
 "http://www.w3.org/TR/2001/REC-SVG-20010904/DTD/svg10.dtd">
<svg version="1.0" xmlns="http://www.w3.org/2000/svg"
 width="1450.000000pt" height="1450.000000pt" viewBox="0 0 1450.000000 1450.000000"
 preserveAspectRatio="xMidYMid meet">
<metadata>
Created by potrace 1.14, written by Peter Selinger 2001-2017
</metadata>
<g transform="translate(0.000000,1450.000000) scale(0.100000,-0.100000)"
fill="#000000" stroke="none">
<path d="M843 14480 c-113 -51 -205 -159 -251 -295 l-27 -80 -3 -3142 -2
-3142 37 15 c21 9 43 20 48 24 6 4 91 49 190 100 99 51 236 122 305 158 69 35
199 103 290 150 91 46 235 121 320 165 85 44 223 114 305 157 144 74 278 144
560 290 72 37 220 114 330 170 110 56 270 139 355 183 85 44 220 113 300 155
80 41 199 103 265 137 66 34 192 100 280 145 88 45 214 111 280 145 66 35 200
104 298 154 98 50 237 122 310 160 72 37 211 109 307 159 96 49 234 120 305
157 72 37 200 104 285 147 278 144 483 249 605 313 199 104 453 235 578 299
64 33 117 63 117 66 0 3 -66 42 -147 87 -284 156 -338 186 -393 216 -30 16
-120 66 -200 110 -155 86 -445 245 -760 417 -107 59 -215 118 -240 132 -52 29
-361 198 -435 238 -106 57 -371 203 -400 220 -16 10 -104 58 -195 108 -91 49
-181 98 -200 109 -19 11 -100 55 -180 98 -80 43 -161 88 -180 99 -19 12 -44
26 -55 32 -104 56 -286 155 -355 194 -47 27 -157 88 -245 135 -217 118 -246
135 -425 233 -85 47 -177 98 -205 113 -83 45 -327 178 -555 304 -751 413 -680
385 -980 385 -171 0 -200 -3 -237 -20z"/>
<path d="M13175 14486 c-61 -15 -161 -63 -365 -174 -85 -46 -182 -99 -215
-116 -33 -17 -62 -33 -65 -36 -3 -3 -68 -40 -145 -82 -77 -41 -203 -110 -280
-153 -77 -42 -165 -90 -195 -107 -30 -16 -73 -39 -95 -52 -22 -13 -121 -67
-220 -121 -99 -54 -201 -110 -226 -124 -26 -14 -107 -59 -180 -99 -74 -40
-156 -86 -184 -101 -42 -24 -183 -101 -446 -245 -31 -17 -121 -66 -200 -110
-79 -43 -171 -93 -204 -110 -33 -17 -62 -34 -65 -37 -4 -5 -191 -107 -355
-194 -154 -83 -292 -159 -315 -175 -14 -10 -44 -26 -65 -37 -22 -11 -116 -62
-210 -113 -93 -52 -190 -104 -215 -117 -25 -12 -51 -27 -58 -33 -7 -6 -41 -25
-75 -42 -34 -16 -96 -50 -137 -74 -41 -24 -95 -54 -120 -67 -42 -22 -326 -178
-435 -239 -27 -15 -79 -42 -115 -60 -36 -18 -67 -36 -70 -39 -3 -3 -36 -23
-75 -44 -38 -21 -92 -50 -120 -65 -191 -106 -395 -216 -422 -229 -18 -9 -32
-19 -33 -22 0 -3 27 -19 61 -35 88 -43 332 -168 344 -177 5 -4 89 -47 185 -96
96 -49 231 -118 300 -153 69 -36 197 -102 285 -148 88 -45 239 -123 335 -174
240 -125 310 -160 468 -240 75 -37 144 -74 152 -80 8 -7 40 -23 70 -36 30 -14
60 -28 65 -33 6 -4 57 -31 115 -61 115 -58 326 -167 575 -296 88 -46 223 -115
300 -155 249 -128 548 -283 645 -334 52 -27 160 -83 240 -123 80 -40 147 -75
150 -78 3 -3 68 -36 145 -75 77 -38 142 -72 145 -75 3 -3 67 -36 143 -75 201
-102 388 -198 597 -307 102 -53 257 -133 345 -178 198 -103 392 -203 600 -310
259 -134 388 -200 392 -200 9 0 2 6183 -7 6257 -6 45 -17 101 -26 125 -23 65
-98 169 -151 209 -97 74 -97 74 -318 76 -135 1 -216 -2 -250 -11z"/>
<path d="M13785 7731 c-71 -38 -218 -113 -325 -169 -107 -55 -253 -130 -325
-167 -71 -37 -200 -103 -285 -147 -85 -44 -213 -111 -285 -148 -160 -83 -339
-176 -600 -310 -267 -138 -1312 -678 -1450 -750 -115 -60 -342 -177 -630 -325
-93 -48 -224 -116 -290 -150 -66 -34 -205 -106 -310 -160 -104 -54 -235 -121
-290 -150 -55 -29 -194 -101 -310 -160 -115 -60 -223 -116 -238 -126 l-29 -17
-171 88 c-95 49 -264 135 -377 192 -113 58 -295 151 -404 207 -150 77 -206
102 -225 98 -14 -3 -125 -57 -246 -119 -121 -63 -263 -136 -315 -162 -110 -56
-342 -175 -482 -248 -54 -28 -98 -55 -98 -60 0 -5 -55 20 -122 55 -68 36 -190
99 -273 142 -82 43 -215 111 -295 152 -80 42 -212 110 -295 153 -82 42 -222
114 -310 160 -88 45 -232 120 -320 165 -88 46 -216 112 -285 148 -69 35 -179
92 -245 126 -66 33 -125 64 -130 68 -6 5 -73 39 -150 78 -77 38 -142 72 -145
75 -3 3 -66 35 -140 72 -128 65 -216 110 -635 328 -177 92 -269 139 -615 317
-96 50 -240 125 -320 166 -80 42 -181 94 -225 116 -44 22 -159 81 -255 131
-96 50 -258 134 -360 187 -102 52 -231 119 -288 149 -56 30 -107 54 -112 54
-7 0 -10 -753 -10 -2178 l0 -2179 118 -60 c64 -32 198 -101 297 -153 99 -51
223 -115 275 -141 52 -27 100 -52 105 -56 6 -5 73 -39 150 -78 77 -38 142 -72
145 -75 3 -3 66 -36 140 -73 149 -75 332 -169 635 -326 110 -57 254 -132 320
-166 66 -34 188 -97 270 -140 83 -43 227 -117 320 -165 205 -105 417 -215 620
-321 83 -43 182 -94 220 -113 39 -19 169 -87 290 -150 286 -149 414 -215 610
-314 88 -45 165 -85 170 -89 6 -5 72 -39 148 -78 76 -38 204 -104 285 -146 81
-42 210 -109 287 -148 77 -40 208 -108 290 -150 83 -43 213 -111 290 -150 225
-115 432 -222 548 -284 160 -84 130 -91 507 105 80 42 217 113 305 158 88 46
219 113 290 150 150 78 386 200 630 325 403 208 613 316 1130 585 144 74 346
179 620 320 99 51 239 123 310 160 72 37 207 107 300 155 94 48 224 116 290
150 66 34 188 97 270 140 83 43 213 110 290 150 293 152 458 236 685 353 129
66 312 160 405 209 94 48 314 162 488 252 l317 164 0 2184 c0 1740 -3 2183
-12 2183 -7 -1 -71 -32 -143 -69z"/>
</g>
</svg>
